<svg id="Layer_1" data-name="Layer 1" xmlns="http://www.w3.org/2000/svg" viewBox="0 0 200 200"><defs><style>.cls-1{fill:#231f20}</style></defs><path class="cls-1" d="M170.69 160.15H29.31a5 5 0 01-5-5V39.66a5 5 0 015-5h141.38a5 5 0 015 5v115.49a5 5 0 01-5 5zm-136.38-10h131.38V44.66H34.31z"/><path class="cls-1" d="M50 55a5 5 0 01-5-5V29.31a5 5 0 0110 0V50a5 5 0 01-5 5zm100 0a5 5 0 01-5-5V29.31a5 5 0 0110 0V50a5 5 0 01-5 5zm12 120.69H38.06a13.77 13.77 0 01-13.75-13.75V150a5 5 0 0110 0v11.94a3.75 3.75 0 003.75 3.75H162a3.75 3.75 0 003.74-3.75V150a5 5 0 0110 0v11.94A13.77 13.77 0 01162 175.69zM50 80a4.66 4.66 0 01-1-.1 5 5 0 01-.93-.28 5.14 5.14 0 01-.87-.46 5 5 0 01-.76-.62 5.57 5.57 0 01-.62-.76 6 6 0 01-.46-.87 5 5 0 01-.26-.91 4.85 4.85 0 010-2 5 5 0 01.28-.93 6 6 0 01.46-.87 4.86 4.86 0 011.38-1.38 5.14 5.14 0 01.87-.46 5 5 0 013.82 0 5.46 5.46 0 01.86.46 5.07 5.07 0 011.39 1.38 6 6 0 01.46.87 5 5 0 01.28.93 4.85 4.85 0 010 2 5 5 0 01-.28.93 6 6 0 01-.46.87 5.07 5.07 0 01-1.39 1.38 5.46 5.46 0 01-.86.46 5 5 0 01-.93.28A4.66 4.66 0 0150 80zm16.67 0a4.59 4.59 0 01-1-.1 5.32 5.32 0 01-.94-.28 5.46 5.46 0 01-.86-.46 5 5 0 01-.76-.62 5.57 5.57 0 01-.62-.76 5.19 5.19 0 01-.46-.87 5 5 0 01-.29-.93 5.38 5.38 0 010-2 5 5 0 01.29-.93 5.19 5.19 0 01.46-.87 4.86 4.86 0 011.38-1.38 5.46 5.46 0 01.86-.46 5.32 5.32 0 01.94-.28 5 5 0 012 0 5.22 5.22 0 01.93.28 5.46 5.46 0 01.86.46 4.57 4.57 0 01.76.62A5 5 0 0171.66 75a5.41 5.41 0 01-.09 1 5 5 0 01-.29.93 5.19 5.19 0 01-.46.87 5 5 0 01-.62.76 4.57 4.57 0 01-.76.62 5.46 5.46 0 01-.86.46 5.22 5.22 0 01-.93.28 4.73 4.73 0 01-.98.08zm16.66 0a4.57 4.57 0 01-1-.1 5.08 5.08 0 01-.94-.28 5.46 5.46 0 01-.86-.46 5.13 5.13 0 01-.76-.62A5 5 0 0178.33 75a4.66 4.66 0 01.1-1 5 5 0 01.28-.93 5.24 5.24 0 01.47-.87 5.57 5.57 0 01.62-.76 4.57 4.57 0 01.76-.62 5.46 5.46 0 01.86-.46 5.08 5.08 0 01.94-.28 4.92 4.92 0 012 0 5.32 5.32 0 01.94.28 5.46 5.46 0 01.86.46 5 5 0 01.76.62 5.57 5.57 0 01.62.76 6 6 0 01.46.87 5 5 0 01.28.93 4.66 4.66 0 01.1 1 5 5 0 01-1.46 3.54 5.71 5.71 0 01-.76.62 5.46 5.46 0 01-.86.46 5.32 5.32 0 01-.94.28 4.59 4.59 0 01-1.03.1zm50 0a4.57 4.57 0 01-1-.1 5.08 5.08 0 01-.94-.28 5.46 5.46 0 01-.86-.46 4.57 4.57 0 01-.76-.62 5.78 5.78 0 01-.63-.76 6 6 0 01-.46-.87 5 5 0 01-.28-.93 4.85 4.85 0 010-2 5 5 0 01.28-.93 6 6 0 01.46-.87 5.78 5.78 0 01.63-.76 4.57 4.57 0 01.76-.62 5.46 5.46 0 01.86-.46 5.08 5.08 0 01.94-.28 4.92 4.92 0 011.95 0 5 5 0 01.93.28 5.14 5.14 0 01.87.46 4.86 4.86 0 011.38 1.38 5.19 5.19 0 01.46.87 5 5 0 01.29.93 5.38 5.38 0 010 2 5 5 0 01-.29.93 5.19 5.19 0 01-.46.87 4.86 4.86 0 01-1.38 1.38 5.14 5.14 0 01-.87.46 5 5 0 01-.93.28 4.59 4.59 0 01-.95.1zm-16.66 0a5 5 0 01-3.54-1.46 5.1 5.1 0 01-.62-.77 4.74 4.74 0 01-.46-.86 5 5 0 01-.29-.93 5.41 5.41 0 01-.09-1 5 5 0 016.91-4.62 5.46 5.46 0 01.86.46 4.57 4.57 0 01.76.62 5 5 0 01.62.76 5.19 5.19 0 01.46.87 5 5 0 01.29.93 4.85 4.85 0 010 2 5 5 0 01-.29.93 4.74 4.74 0 01-.46.86 4.73 4.73 0 01-1.38 1.39 5.46 5.46 0 01-.86.46 5.08 5.08 0 01-.94.28 4.57 4.57 0 01-.97.08zM100 80a4.66 4.66 0 01-1-.1 5 5 0 01-.93-.28 5.46 5.46 0 01-.86-.46 4.65 4.65 0 01-.77-.62A5 5 0 0195 75a4.66 4.66 0 01.1-1 5 5 0 01.28-.93 6 6 0 01.46-.87 5.57 5.57 0 01.62-.76 4.65 4.65 0 01.77-.62 5.46 5.46 0 01.86-.46 5 5 0 013.82 0 5.46 5.46 0 01.86.46 4.57 4.57 0 01.76.62 5 5 0 01.63.76 6 6 0 01.46.87 5 5 0 01.28.93 4.66 4.66 0 01.1 1 5 5 0 01-1.47 3.54 4.57 4.57 0 01-.76.62 5.46 5.46 0 01-.86.46 5 5 0 01-.93.28 4.66 4.66 0 01-.98.1zm50 0a5 5 0 01-3.54-8.54 5 5 0 01.76-.62 5.14 5.14 0 01.87-.46 5 5 0 013.82 0 6 6 0 01.87.46 5 5 0 01.76 7.7A5.07 5.07 0 01150 80zM50 100a4.66 4.66 0 01-1-.1 5 5 0 01-.93-.28 5.14 5.14 0 01-.87-.46 5 5 0 01-.76-.62 5.1 5.1 0 01-.62-.77 5.46 5.46 0 01-.46-.86 5 5 0 01-.26-.91 4.85 4.85 0 010-2 5 5 0 01.28-.93 6 6 0 01.46-.87 4.86 4.86 0 011.38-1.38 5.14 5.14 0 01.87-.46 5 5 0 013.82 0 5.46 5.46 0 01.86.46 5.07 5.07 0 011.39 1.38 6 6 0 01.46.87 5 5 0 01.28.93 4.85 4.85 0 010 2 5 5 0 01-.28.93 5.46 5.46 0 01-.46.86 4.93 4.93 0 01-1.39 1.39 5.46 5.46 0 01-.86.46 5 5 0 01-.93.28 4.66 4.66 0 01-.98.08zm16.67 0a4.59 4.59 0 01-1-.1 5.32 5.32 0 01-.94-.28 5.46 5.46 0 01-.86-.46 4.86 4.86 0 01-1.38-1.38 5.19 5.19 0 01-.46-.87 5 5 0 01-.29-.93 5.38 5.38 0 010-2 5 5 0 01.29-.93 5.19 5.19 0 01.46-.87 5.57 5.57 0 01.62-.76 5.71 5.71 0 01.76-.62 5.46 5.46 0 01.86-.46 5.32 5.32 0 01.94-.28 5 5 0 012 0 5.22 5.22 0 01.93.28 5.46 5.46 0 01.86.46 5.13 5.13 0 01.76.62 5.57 5.57 0 01.62.76 5.19 5.19 0 01.46.87 5 5 0 01.29.93 5.38 5.38 0 010 2 5 5 0 01-.29.93 5.19 5.19 0 01-.46.87 5 5 0 01-.62.76 4.57 4.57 0 01-.76.62 5.46 5.46 0 01-.86.46 5.22 5.22 0 01-.93.28 4.73 4.73 0 01-1 .1zm16.66 0a4.57 4.57 0 01-1-.1 5.08 5.08 0 01-.94-.28 5.46 5.46 0 01-.86-.46 4.57 4.57 0 01-.76-.62A5 5 0 0178.33 95a4.66 4.66 0 01.1-1 5 5 0 01.28-.93 5.24 5.24 0 01.47-.87 5 5 0 01.62-.76 4.57 4.57 0 01.76-.62 5.46 5.46 0 01.86-.46 5.08 5.08 0 01.94-.28 4.92 4.92 0 012 0 5.32 5.32 0 01.94.28 5.46 5.46 0 01.86.46 4.86 4.86 0 011.38 1.38 6 6 0 01.46.87 5 5 0 01.28.93 4.66 4.66 0 01.1 1 5 5 0 01-2.22 4.16 5.46 5.46 0 01-.86.46 5.32 5.32 0 01-.94.28 4.59 4.59 0 01-1.03.1zm50 0a4.57 4.57 0 01-1-.1 5.08 5.08 0 01-.94-.28 5.46 5.46 0 01-.86-.46 4.57 4.57 0 01-.76-.62 5.78 5.78 0 01-.63-.76 6 6 0 01-.46-.87 5 5 0 01-.28-.93 4.66 4.66 0 01-.1-1 4.59 4.59 0 01.1-1 5 5 0 01.28-.93 6 6 0 01.46-.87 5.69 5.69 0 01.63-.75 4.17 4.17 0 01.76-.63 5.46 5.46 0 01.86-.46 5.08 5.08 0 01.94-.28 4.92 4.92 0 011.95 0 5 5 0 01.93.28 5.14 5.14 0 01.87.46 4.54 4.54 0 01.76.63 4.94 4.94 0 01.62.75 5.19 5.19 0 01.46.87 5 5 0 01.29.93 5.33 5.33 0 01.09 1 5.41 5.41 0 01-.09 1 5 5 0 01-.29.93 5.19 5.19 0 01-.46.87 4.86 4.86 0 01-1.38 1.38 5.14 5.14 0 01-.87.46 5 5 0 01-.93.28 4.59 4.59 0 01-.95.1zm-16.66 0a5 5 0 01-5-5 5.41 5.41 0 01.09-1 5 5 0 01.29-.93 4.74 4.74 0 01.46-.86 5 5 0 016.07-1.85 5.46 5.46 0 01.86.46 4.73 4.73 0 011.38 1.39 4.74 4.74 0 01.46.86 5 5 0 01.29.93 4.85 4.85 0 010 2 5 5 0 01-.29.93 5.19 5.19 0 01-.46.87 5 5 0 01-.62.76 4.57 4.57 0 01-.76.62 5.46 5.46 0 01-.86.46 5.08 5.08 0 01-.94.28 4.57 4.57 0 01-.97.08zM100 100a4.66 4.66 0 01-1-.1 5 5 0 01-.93-.28 5.46 5.46 0 01-.86-.46 4.65 4.65 0 01-.77-.62 5 5 0 01-.62-.76 6 6 0 01-.46-.87 5 5 0 01-.26-.91 4.85 4.85 0 010-2 5 5 0 01.28-.93 6 6 0 01.46-.87 5 5 0 01.62-.76 4.65 4.65 0 01.77-.62 5.46 5.46 0 01.86-.46 5 5 0 013.82 0 5.46 5.46 0 01.86.46 5.07 5.07 0 011.39 1.38 6 6 0 01.46.87 5 5 0 01.28.93 4.85 4.85 0 010 2 5 5 0 01-.28.93 6 6 0 01-.46.87 5.07 5.07 0 01-1.39 1.38 5.46 5.46 0 01-.86.46 5 5 0 01-.93.28 4.66 4.66 0 01-.98.08zm50 0a4.66 4.66 0 01-1-.1 5 5 0 01-.93-.28 5.14 5.14 0 01-.87-.46 5.71 5.71 0 01-.76-.62 5 5 0 117.08 0 5.71 5.71 0 01-.76.62 6 6 0 01-.87.46 5 5 0 01-.93.28 4.66 4.66 0 01-.96.1zM50 120a4.66 4.66 0 01-1-.1 5 5 0 01-.93-.28 5.14 5.14 0 01-.87-.46 4.86 4.86 0 01-1.38-1.38 6 6 0 01-.46-.87 5 5 0 01-.28-.93 4.85 4.85 0 010-2 5 5 0 01.28-.93 6 6 0 01.46-.87 4.86 4.86 0 011.38-1.38 5.14 5.14 0 01.87-.46 5 5 0 013.82 0 5.46 5.46 0 01.86.46 5.07 5.07 0 011.39 1.38 6 6 0 01.46.87 5 5 0 01.28.93 4.66 4.66 0 01.1 1 5 5 0 01-1.47 3.54 4.57 4.57 0 01-.76.62 5.46 5.46 0 01-.86.46 5 5 0 01-.93.28 4.66 4.66 0 01-.96.12zm16.67 0a4.59 4.59 0 01-1-.1 5.32 5.32 0 01-.94-.28 5.46 5.46 0 01-.86-.46 4.86 4.86 0 01-1.38-1.38 5.19 5.19 0 01-.46-.87 5 5 0 01-.29-.93 5.38 5.38 0 010-2 5 5 0 01.29-.93 5.19 5.19 0 01.46-.87 4.86 4.86 0 011.38-1.38 5.46 5.46 0 01.86-.46 5.32 5.32 0 01.94-.28 5 5 0 012 0 5.22 5.22 0 01.93.28 5.46 5.46 0 01.86.46 4.57 4.57 0 01.76.62 5 5 0 011.44 3.58 5.41 5.41 0 01-.09 1 5 5 0 01-.29.93 5.19 5.19 0 01-.46.87 5 5 0 01-.62.76 4.57 4.57 0 01-.76.62 5.46 5.46 0 01-.86.46 5.22 5.22 0 01-.93.28 4.73 4.73 0 01-.98.08zm16.66 0a4.57 4.57 0 01-1-.1 5.08 5.08 0 01-.94-.28 5.46 5.46 0 01-.86-.46 4.57 4.57 0 01-.76-.62 5 5 0 01-.62-.76 5.24 5.24 0 01-.47-.87 5 5 0 01-.28-.93 4.59 4.59 0 01-.1-1 4.73 4.73 0 01.1-1 5 5 0 01.28-.93 4.79 4.79 0 01.47-.86 4.65 4.65 0 01.62-.77 4.57 4.57 0 01.76-.62 5.46 5.46 0 01.86-.46 5.08 5.08 0 01.94-.28 4.92 4.92 0 012 0 5.32 5.32 0 01.94.28 5.46 5.46 0 01.86.46 5 5 0 01.76.62 4.65 4.65 0 01.62.77 5.46 5.46 0 01.46.86 5 5 0 01.28.93 4.73 4.73 0 01.1 1 4.59 4.59 0 01-.1 1 5 5 0 01-.28.93 6 6 0 01-.46.87 4.86 4.86 0 01-1.38 1.38 5.46 5.46 0 01-.86.46 5.32 5.32 0 01-.94.28 4.59 4.59 0 01-1 .1zm50 0a4.57 4.57 0 01-1-.1 5.08 5.08 0 01-.94-.28 5.46 5.46 0 01-.86-.46 4.57 4.57 0 01-.76-.62 5 5 0 010-7.08 5.13 5.13 0 01.76-.62 5.46 5.46 0 01.86-.46 5.08 5.08 0 01.94-.28 4.92 4.92 0 011.95 0 5 5 0 01.93.28 5.14 5.14 0 01.87.46 5.71 5.71 0 01.76.62 5 5 0 01-.76 7.7 5.14 5.14 0 01-.87.46 5 5 0 01-.93.28 4.59 4.59 0 01-.95.1zm-16.66 0a5 5 0 01-5-5 5.5 5.5 0 01.09-1 5 5 0 01.29-.93 5.19 5.19 0 01.46-.87 5 5 0 015.13-2.12 5.08 5.08 0 01.94.28 5.46 5.46 0 01.86.46 4.57 4.57 0 01.76.62 5.08 5.08 0 011.47 3.54 5.34 5.34 0 01-.1 1 5 5 0 01-.29.93 4.83 4.83 0 01-.46.87 5 5 0 01-.62.76 4.57 4.57 0 01-.76.62 5.46 5.46 0 01-.86.46 5.08 5.08 0 01-.94.28 4.57 4.57 0 01-.97.1zM100 120a4.66 4.66 0 01-1-.1 5 5 0 01-.93-.28 5.46 5.46 0 01-.86-.46 4.65 4.65 0 01-.77-.62 5 5 0 01-.62-.76 6 6 0 01-.46-.87 5 5 0 01-.28-.93 4.85 4.85 0 010-2 5 5 0 01.28-.93 6 6 0 01.46-.87 5 5 0 01.62-.76 4.65 4.65 0 01.77-.62 5.46 5.46 0 01.86-.46 5 5 0 013.82 0 5.46 5.46 0 01.86.46 5.07 5.07 0 011.39 1.38 6 6 0 01.46.87 5 5 0 01.28.93 4.85 4.85 0 010 2 5 5 0 01-.28.93 6 6 0 01-.46.87 5.07 5.07 0 01-1.39 1.38 5.46 5.46 0 01-.86.46 5 5 0 01-.93.28 4.66 4.66 0 01-.96.1zm50 0a4.66 4.66 0 01-1-.1 5 5 0 01-.93-.28 5.14 5.14 0 01-.87-.46 5 5 0 01-.76-.62 5.1 5.1 0 01-.62-.77 5.46 5.46 0 01-.46-.86 5 5 0 01-.28-.93 4.85 4.85 0 010-2 5 5 0 01.28-.93 6 6 0 01.46-.87 5 5 0 01.62-.76 5 5 0 017.08 0 5 5 0 01.62.76 6 6 0 01.46.87 5 5 0 01.28.93 4.85 4.85 0 010 2 5 5 0 01-.28.93 5.46 5.46 0 01-.46.86 5.1 5.1 0 01-.62.77 5 5 0 01-.76.62 6 6 0 01-.87.46 5 5 0 01-.93.28 4.66 4.66 0 01-.96.1zM50 140a4.66 4.66 0 01-1-.1 5 5 0 01-.93-.28 5.14 5.14 0 01-.87-.46 5.09 5.09 0 01-.76-.63 4.94 4.94 0 01-.62-.75 6 6 0 01-.46-.87 5 5 0 01-.28-.93 4.85 4.85 0 010-2 5 5 0 01.28-.93 6 6 0 01.46-.87 4.94 4.94 0 01.62-.75 5.09 5.09 0 01.76-.63 5.14 5.14 0 01.87-.46 5 5 0 013.82 0 5.46 5.46 0 01.86.46 4.63 4.63 0 01.76.63 4.48 4.48 0 01.63.75 6 6 0 01.46.87 5 5 0 01.28.93 4.85 4.85 0 010 2 5 5 0 01-.28.93 6 6 0 01-.46.87 4.48 4.48 0 01-.63.75 4.63 4.63 0 01-.76.63 5.46 5.46 0 01-.86.46 5 5 0 01-.93.28 4.66 4.66 0 01-.96.1zm16.67 0a4.59 4.59 0 01-1-.1 5.32 5.32 0 01-.94-.28 5.46 5.46 0 01-.86-.46 5.71 5.71 0 01-.76-.62 5.07 5.07 0 01-1.44-3.54 5.41 5.41 0 01.09-1 5 5 0 01.29-.93 4.74 4.74 0 01.46-.86 5.1 5.1 0 01.62-.77 5.71 5.71 0 01.76-.62 5.46 5.46 0 01.86-.46 5.32 5.32 0 01.94-.28 5 5 0 012 0 5.22 5.22 0 01.93.28 5.46 5.46 0 01.86.46 4.73 4.73 0 011.38 1.39 4.74 4.74 0 01.46.86 5 5 0 01.29.93 5.41 5.41 0 01.09 1 5.33 5.33 0 01-.09 1 5 5 0 01-.29.93 4.74 4.74 0 01-.46.86 4.73 4.73 0 01-1.38 1.39 5.46 5.46 0 01-.86.46 5.22 5.22 0 01-.93.28 4.73 4.73 0 01-1.02.08zm16.66 0a4.57 4.57 0 01-1-.1 5.08 5.08 0 01-.94-.28 5.46 5.46 0 01-.86-.46 4.57 4.57 0 01-.76-.62 5 5 0 01-.62-.76 5.24 5.24 0 01-.47-.87 5 5 0 01-.28-.93 4.66 4.66 0 01-.1-1 5 5 0 011.47-3.54 4.57 4.57 0 01.76-.62 5.46 5.46 0 01.86-.46 5.08 5.08 0 01.94-.28 4.92 4.92 0 012 0 5.32 5.32 0 01.94.28 5.46 5.46 0 01.86.46 5 5 0 012.2 4.18 4.66 4.66 0 01-.1 1 5 5 0 01-.28.93 6 6 0 01-.46.87 4.86 4.86 0 01-1.38 1.38 5.46 5.46 0 01-.86.46 5.32 5.32 0 01-.94.28 4.59 4.59 0 01-.98.08zm50 0a4.57 4.57 0 01-1-.1 5.08 5.08 0 01-.94-.28 5.46 5.46 0 01-.86-.46 4.57 4.57 0 01-.76-.62 5 5 0 010-7.08 5.13 5.13 0 01.76-.62 5.46 5.46 0 01.86-.46 5.08 5.08 0 01.94-.28 4.92 4.92 0 011.95 0 5 5 0 01.93.28 5.14 5.14 0 01.87.46 5.71 5.71 0 01.76.62 5 5 0 01-.76 7.7 5.14 5.14 0 01-.87.46 5 5 0 01-.93.28 4.59 4.59 0 01-.95.1zm-16.66 0a5 5 0 01-3.54-1.46 5.1 5.1 0 01-.62-.77 4.74 4.74 0 01-.46-.86 5 5 0 01-.29-.93 5.41 5.41 0 01-.09-1 5.33 5.33 0 01.09-1 5 5 0 01.29-.93 5.19 5.19 0 01.46-.87 5 5 0 015.13-2.12 5.08 5.08 0 01.94.28 5.46 5.46 0 01.86.46 4.57 4.57 0 01.76.62 5.57 5.57 0 01.62.76 5.19 5.19 0 01.46.87 5 5 0 01.29.93 4.85 4.85 0 010 2 5 5 0 01-.29.93 4.74 4.74 0 01-.46.86 4.73 4.73 0 01-1.38 1.39 5.46 5.46 0 01-.86.46 5.08 5.08 0 01-.94.28 4.57 4.57 0 01-.97.1zM100 140a4.66 4.66 0 01-1-.1 5 5 0 01-.93-.28 5.46 5.46 0 01-.86-.46 4.65 4.65 0 01-.77-.62 5 5 0 01-.62-.76 6 6 0 01-.46-.87 5 5 0 01-.28-.93 4.85 4.85 0 010-2 5 5 0 01.28-.93 6 6 0 01.46-.87 5 5 0 01.62-.76 4.65 4.65 0 01.77-.62 5.46 5.46 0 01.86-.46 5 5 0 013.82 0 5.46 5.46 0 01.86.46 5.07 5.07 0 011.39 1.38 6 6 0 01.46.87 5 5 0 01.28.93 4.85 4.85 0 010 2 5 5 0 01-.28.93 6 6 0 01-.46.87 5.07 5.07 0 01-1.39 1.38 5.46 5.46 0 01-.86.46 5 5 0 01-.93.28 4.66 4.66 0 01-.96.1zm50 0a5 5 0 01-3.54-8.54 5 5 0 01.76-.62 5.14 5.14 0 01.87-.46 5 5 0 013.82 0 6 6 0 01.87.46 5 5 0 01.76 7.7A5.07 5.07 0 01150 140z"/></svg>