<svg height="91" width="91" xmlns="http://www.w3.org/2000/svg"><path d="M25.878 74.469h35.129a6.525 6.525 0 006.518-6.52v-31.75c0-.038-.019-.07-.021-.108a1.66 1.66 0 00-.09-.447c-.02-.057-.037-.114-.063-.167a1.67 1.67 0 00-.281-.417c-.021-.022-.032-.05-.054-.07-.006-.005-.008-.012-.013-.017l-15.015-14.4a1.722 1.722 0 00-.473-.311c-.049-.022-.1-.033-.151-.05a1.67 1.67 0 00-.446-.091c-.037-.002-.068-.021-.106-.021H25.878a1.7 1.7 0 00-1.699 1.7v50.97c0 .938.76 1.699 1.699 1.699zm26.633-48.684l9.086 8.714H55.63a3.123 3.123 0 01-3.119-3.12v-5.594zm-24.933-2.286H49.11v7.881a6.527 6.527 0 006.52 6.52h8.495v30.05a3.122 3.122 0 01-3.118 3.12H27.578V23.499z"/></svg>